<svg xmlns="http://www.w3.org/2000/svg" xmlns:xlink="http://www.w3.org/1999/xlink" width="500" zoomAndPan="magnify" viewBox="0 0 375 374.999991" height="500" preserveAspectRatio="xMidYMid meet" version="1.0"><path stroke-linecap="butt" transform="matrix(0.563558, 0, 0, 0.563558, -133.940905, 63.171896)" fill="none" stroke-linejoin="miter" d="M 603.481924 233.900239 C 617.060548 231.599013 627.658667 226.400459 635.26935 218.290714 C 642.880033 210.187901 646.685375 200.061118 646.685375 187.903433 C 646.685375 176.626036 640.384727 162.284958 627.790363 144.873268 L 627.790363 144.706914 C 617.940836 151.603663 611.425315 157.682505 608.2438 162.93651 C 605.069216 168.197447 603.481924 176.244809 603.481924 187.085527 Z M 490.146514 326.37905 C 495.622325 320.792338 499.753442 314.824398 502.546799 308.468299 C 505.340155 302.119131 506.733367 295.548159 506.733367 288.762313 L 506.733367 268.557266 L 502.297268 268.557266 C 494.742036 268.557266 488.995901 269.978204 485.051931 272.827012 C 481.107962 275.67582 478.647313 280.056468 477.663053 285.968957 C 474.814245 282.246792 472.707098 278.552353 471.33468 274.878708 C 469.969193 271.211995 469.282984 267.295751 469.282984 263.136907 C 469.282984 253.058644 472.325871 245.233087 478.397782 239.646374 C 484.476625 234.059662 492.995322 231.273237 503.940011 231.273237 L 506.733367 231.273237 L 506.733367 217.472808 C 506.733367 206.084509 510.732788 196.803357 518.724699 189.629353 C 526.716609 182.455348 539.858554 176.466614 558.150533 171.642356 C 554.095661 174.054485 551.274579 177.118166 549.687287 180.840331 C 548.099995 184.569427 547.309815 191.7365 547.309815 202.362345 L 547.309815 263.136907 C 547.309815 278.68405 542.873715 291.389316 534.001516 301.245774 C 525.129318 311.102233 510.510983 319.475371 490.146514 326.37905 Z M 551.413207 299.110902 C 555.904758 295.825415 559.107067 291.631915 561.020135 286.544263 C 562.940134 281.44968 563.896668 273.977625 563.896668 264.121167 L 563.896668 204.663571 C 563.896668 195.569567 564.825476 189.2204 566.690024 185.609138 C 568.547641 181.990944 573.642224 177.118166 581.966842 170.990804 L 628.781554 136.985329 C 628.885525 136.985329 628.996428 136.929877 629.10733 136.818975 C 636.55166 130.906486 644.765375 123.462157 653.748477 114.485986 C 665.89923 121.056959 674.57735 128.224032 679.782835 136.001069 C 684.98139 143.778106 687.580667 153.301857 687.580667 164.579254 C 687.580667 180.24423 682.957419 193.517871 673.703993 204.414041 C 664.450567 215.31021 649.256926 225.353816 628.123071 234.558723 C 639.948048 235.43208 649.340103 238.197711 656.292302 242.848684 C 663.244502 247.506588 669.35107 255.200448 674.605076 265.930264 C 677.017205 270.969395 679.969983 278.136469 683.477275 287.445346 C 690.810701 307.380068 699.516547 317.340498 709.59481 317.340498 C 710.468167 317.340498 711.618781 317.229595 713.039719 317.014722 C 714.467588 316.792917 716.768815 316.356238 719.943399 315.697755 C 712.60304 325.117535 706.364775 333.462947 701.214741 340.747854 C 696.071638 348.032761 692.238571 354.028427 689.715539 358.734851 C 677.564786 356.766332 667.736053 352.302507 660.236272 345.350307 C 652.72956 338.391176 646.844797 328.292118 642.575051 315.039271 C 632.829495 323.142084 624.095924 331.168652 616.374339 339.105111 C 608.659684 347.04157 602.386762 354.465105 597.569436 361.361854 C 589.466623 357.20301 581.252907 354.104672 572.928289 352.080702 C 564.610603 350.056731 555.960209 349.044746 546.977107 349.044746 C 535.699711 349.044746 524.858993 349.945829 514.454953 351.754926 C 504.050914 353.557091 493.702325 356.322722 483.409188 360.051818 C 496.44023 342.092547 510.59416 328.701071 525.870978 319.884324 C 541.147795 311.074507 557.984179 306.666133 576.380129 306.666133 C 586.673266 306.666133 595.760339 307.844472 603.648278 310.194219 C 611.529286 312.550897 618.925096 316.300787 625.821844 321.450821 L 640.932308 309.293136 C 637.431948 283.889535 633.106751 266.096617 627.956717 255.907451 C 622.813614 245.725217 615.799032 240.630634 606.933764 240.630634 C 606.601057 240.630634 606.081202 240.686085 605.374198 240.796988 C 604.660263 240.90789 604.029506 240.963341 603.481924 240.963341 L 603.481924 259.851421 C 603.481924 272.009106 599.75976 280.902099 592.31543 286.544263 C 584.864169 292.179496 571.230095 296.372996 551.413207 299.110902 Z M 482.424929 163.594994 C 487.900739 148.706335 495.677776 136.902152 505.749108 128.196306 C 515.827371 119.490461 526.557187 115.137539 537.945486 115.137539 C 544.405556 115.137539 553.083676 117.272411 563.979845 121.549089 C 574.876014 125.818834 583.117455 127.953707 588.697237 127.953707 C 592.966982 127.953707 597.105031 127.350675 601.104452 126.14461 C 605.096942 124.938546 609.616218 122.748222 614.65535 119.573638 C 606.21983 132.168002 596.363371 142.322511 585.085974 150.044096 C 573.808578 157.765682 563.45999 161.626475 554.04021 161.626475 C 549.001078 161.626475 541.390395 159.761927 531.20816 156.039762 C 521.025925 152.317597 513.415242 150.453049 508.376111 150.453049 C 504.432141 150.453049 500.328749 151.520486 496.059003 153.655359 C 491.789257 155.797163 487.242255 159.103443 482.424929 163.594994 Z M 482.424929 163.594994 " stroke="#ffffff" stroke-width="2.312805" stroke-opacity="1" stroke-miterlimit="4"/><path stroke-linecap="butt" transform="matrix(0.563558, 0, 0, 0.563558, -129.7534, 63.171896)" fill="none" stroke-linejoin="miter" d="M 603.481915 233.900239 C 617.060538 231.599013 627.658657 226.400459 635.26934 218.290714 C 642.880023 210.187901 646.685365 200.061118 646.685365 187.903433 C 646.685365 176.626036 640.384718 162.284958 627.790354 144.873268 L 627.790354 144.706914 C 617.940827 151.603663 611.425306 157.682505 608.243791 162.93651 C 605.069207 168.197447 603.481915 176.244809 603.481915 187.085527 Z M 490.146505 326.37905 C 495.622315 320.792338 499.753433 314.824398 502.546789 308.468299 C 505.340146 302.119131 506.733358 295.548159 506.733358 288.762313 L 506.733358 268.557266 L 502.297259 268.557266 C 494.742027 268.557266 488.995892 269.978204 485.051922 272.827012 C 481.107952 275.67582 478.647303 280.056468 477.663044 285.968957 C 474.814236 282.246792 472.707089 278.552353 471.334671 274.878708 C 469.969184 271.211995 469.282975 267.295751 469.282975 263.136907 C 469.282975 253.058644 472.325861 245.233087 478.397773 239.646374 C 484.476615 234.059662 492.995312 231.273237 503.940002 231.273237 L 506.733358 231.273237 L 506.733358 217.472808 C 506.733358 206.084509 510.732779 196.803357 518.724689 189.629353 C 526.7166 182.455348 539.858545 176.466614 558.150524 171.642356 C 554.095651 174.054485 551.274569 177.118166 549.687277 180.840331 C 548.099986 184.569427 547.309805 191.7365 547.309805 202.362345 L 547.309805 263.136907 C 547.309805 278.68405 542.873706 291.389316 534.001507 301.245774 C 525.129308 311.102233 510.510974 319.475371 490.146505 326.37905 Z M 551.413197 299.110902 C 555.904748 295.825415 559.107057 291.631915 561.020125 286.544263 C 562.940125 281.44968 563.896659 273.977625 563.896659 264.121167 L 563.896659 204.663571 C 563.896659 195.569567 564.825467 189.2204 566.690015 185.609138 C 568.547632 181.990944 573.642215 177.118166 581.966833 170.990804 L 628.781545 136.985329 C 628.885516 136.985329 628.996418 136.929877 629.107321 136.818975 C 636.55165 130.906486 644.765366 123.462157 653.748467 114.485986 C 665.899221 121.056959 674.577341 128.224032 679.782826 136.001069 C 684.98138 143.778106 687.580657 153.301857 687.580657 164.579254 C 687.580657 180.24423 682.95741 193.517871 673.703983 204.414041 C 664.450557 215.31021 649.256916 225.353816 628.123061 234.558723 C 639.948039 235.43208 649.340093 238.197711 656.292293 242.848684 C 663.244493 247.506588 669.351061 255.200448 674.605066 265.930264 C 677.017195 270.969395 679.969974 278.136469 683.477265 287.445346 C 690.810692 307.380068 699.516537 317.340498 709.594801 317.340498 C 710.468158 317.340498 711.618771 317.229595 713.039709 317.014722 C 714.467579 316.792917 716.768805 316.356238 719.943389 315.697755 C 712.603031 325.117535 706.364766 333.462947 701.214732 340.747854 C 696.071629 348.032761 692.238562 354.028427 689.71553 358.734851 C 677.564776 356.766332 667.736043 352.302507 660.236263 345.350307 C 652.729551 338.391176 646.844787 328.292118 642.575042 315.039271 C 632.829486 323.142084 624.095915 331.168652 616.374329 339.105111 C 608.659675 347.04157 602.386753 354.465105 597.569426 361.361854 C 589.466613 357.20301 581.252898 354.104672 572.92828 352.080702 C 564.610593 350.056731 555.960199 349.044746 546.977098 349.044746 C 535.699701 349.044746 524.858983 349.945829 514.454944 351.754926 C 504.050904 353.557091 493.702316 356.322722 483.409179 360.051818 C 496.440221 342.092547 510.594151 328.701071 525.870968 319.884324 C 541.147786 311.074507 557.98417 306.666133 576.38012 306.666133 C 586.673257 306.666133 595.760329 307.844472 603.648269 310.194219 C 611.529277 312.550897 618.925086 316.300787 625.821835 321.450821 L 640.932299 309.293136 C 637.431939 283.889535 633.106742 266.096617 627.956708 255.907451 C 622.813605 245.725217 615.799022 240.630634 606.933755 240.630634 C 606.601047 240.630634 606.081192 240.686085 605.374189 240.796988 C 604.660254 240.90789 604.029496 240.963341 603.481915 240.963341 L 603.481915 259.851421 C 603.481915 272.009106 599.75975 280.902099 592.315421 286.544263 C 584.86416 292.179496 571.230086 296.372996 551.413197 299.110902 Z M 482.424919 163.594994 C 487.900729 148.706335 495.677766 136.902152 505.749098 128.196306 C 515.827362 119.490461 526.557178 115.137539 537.945477 115.137539 C 544.405547 115.137539 553.083666 117.272411 563.979835 121.549089 C 574.876005 125.818834 583.117446 127.953707 588.697227 127.953707 C 592.966973 127.953707 597.105022 127.350675 601.104443 126.14461 C 605.096932 124.938546 609.616209 122.748222 614.655341 119.573638 C 606.21982 132.168002 596.363362 142.322511 585.085965 150.044096 C 573.808568 157.765682 563.45998 161.626475 554.0402 161.626475 C 549.001068 161.626475 541.390385 159.761927 531.208151 156.039762 C 521.025916 152.317597 513.415233 150.453049 508.376101 150.453049 C 504.432131 150.453049 500.328739 151.520486 496.058994 153.655359 C 491.789248 155.797163 487.242246 159.103443 482.424919 163.594994 Z M 482.424919 163.594994 " stroke="#fffbfb" stroke-width="2.312805" stroke-opacity="1" stroke-miterlimit="4"/></svg>